<?xml version="1.0" standalone="no"?>
<!DOCTYPE svg PUBLIC "-//W3C//DTD SVG 20010904//EN"
 "http://www.w3.org/TR/2001/REC-SVG-20010904/DTD/svg10.dtd">
<svg version="1.0" xmlns="http://www.w3.org/2000/svg"
 width="512.000000pt" height="512.000000pt" viewBox="0 0 512.000000 512.000000"
 preserveAspectRatio="xMidYMid meet">

<g transform="translate(0.000000,512.000000) scale(0.100000,-0.100000)"
fill="#000000" stroke="none">
<path d="M4 5089 c3 -17 7 -106 8 -198 l2 -166 3 133 c3 124 5 132 23 132 11
0 20 6 20 14 0 9 13 3 35 -17 19 -17 35 -37 35 -44 0 -8 4 -12 9 -9 5 3 82
-65 172 -151 402 -384 567 -535 551 -508 -9 17 -4 26 40 68 41 39 49 51 42 67
-5 10 -106 127 -224 260 -118 134 -219 249 -225 257 -5 7 -48 54 -94 103 l-84
90 -160 0 -160 0 7 -31z"/>
<path d="M820 5113 c0 -5 64 -94 143 -199 78 -104 164 -220 191 -257 l49 -67
18 30 c10 16 24 30 31 30 6 0 25 12 40 27 24 23 30 25 38 13 5 -8 10 -12 10
-8 0 7 -106 191 -211 367 l-43 71 -133 0 c-73 0 -133 -3 -133 -7z"/>
<path d="M1490 5115 c0 -13 123 -245 130 -245 12 0 95 44 98 53 2 4 15 7 28 7
13 0 24 4 24 8 0 5 -13 46 -30 92 -16 46 -30 85 -30 87 0 1 -49 3 -110 3 -60
0 -110 -2 -110 -5z"/>
<path d="M3512 5113 c-52 -3 -72 -7 -69 -16 2 -7 13 -13 25 -15 12 -2 22 -8
22 -13 0 -5 11 -9 24 -9 14 0 28 -4 31 -10 3 -5 17 -10 31 -10 13 0 24 -6 25
-12 0 -7 8 7 18 32 21 51 19 61 -12 58 -12 -1 -55 -4 -95 -5z"/>
<path d="M4007 5103 c-3 -10 -21 -53 -40 -95 -35 -74 -35 -77 -18 -97 10 -12
26 -21 35 -21 9 0 16 -4 16 -10 0 -5 9 -10 20 -10 11 0 20 -4 20 -10 0 -5 7
-10 15 -10 8 0 15 -5 15 -11 0 -27 37 30 154 234 l27 47 -119 0 c-105 0 -120
-2 -125 -17z"/>
<path d="M4535 4908 c-88 -126 -149 -223 -150 -237 0 -13 9 -28 20 -35 11 -6
31 -23 46 -38 50 -51 33 -65 305 252 87 102 174 204 192 228 l34 42 -149 0
-149 0 -149 -212z"/>
<path d="M2070 5104 c0 -25 24 -44 55 -44 19 0 35 5 35 10 0 6 18 10 39 10 25
0 41 5 45 15 4 13 -9 15 -84 15 -50 0 -90 -3 -90 -6z"/>
<path d="M3068 5103 c7 -3 16 -2 19 1 4 3 -2 6 -13 5 -11 0 -14 -3 -6 -6z"/>
<path d="M4923 4527 l-192 -192 60 -57 c53 -50 63 -56 78 -45 9 6 70 54 134
106 l117 93 0 144 c0 79 -1 144 -2 143 -2 0 -89 -87 -195 -192z"/>
<path d="M4347 4643 c-4 -3 -7 -11 -7 -17 0 -6 5 -5 12 2 6 6 9 14 7 17 -3 3
-9 2 -12 -2z"/>
<path d="M5 4548 c-3 -8 -4 -70 -3 -138 l3 -125 120 -80 c412 -274 465 -304
465 -260 0 6 9 20 20 30 11 10 20 24 20 32 0 13 12 17 40 13 10 -1 12 2 5 8
-18 17 -427 345 -520 417 -50 38 -92 72 -95 75 -3 3 -15 13 -27 24 -19 15 -24
16 -28 4z"/>
<path d="M2624 4011 c-68 -31 -110 -106 -102 -183 3 -28 -2 -34 -50 -63 -120
-71 -211 -177 -264 -311 -16 -38 -33 -63 -48 -71 -14 -7 -30 -20 -37 -29 -12
-16 -21 -14 -120 34 -60 28 -133 61 -164 72 -31 11 -82 41 -114 66 -41 32 -66
44 -84 42 -24 -3 -26 -7 -25 -48 0 -60 74 -225 125 -284 22 -25 55 -54 74 -66
19 -11 44 -38 56 -58 35 -59 60 -81 96 -88 18 -3 33 -11 33 -18 0 -6 13 -39
30 -73 33 -70 74 -103 129 -103 l33 0 -6 -43 c-8 -55 12 -87 112 -174 40 -35
67 -65 60 -67 -68 -20 -115 -45 -158 -83 -51 -46 -110 -134 -110 -165 0 -15
-76 -68 -99 -68 -6 0 -15 9 -20 19 -8 15 -5 27 14 55 14 20 25 48 25 62 0 14
9 38 21 52 18 24 20 35 14 95 -3 37 -15 87 -25 110 -11 23 -20 60 -20 83 0 33
-6 46 -36 75 -20 18 -51 57 -70 85 -18 28 -45 56 -59 62 -19 9 -25 19 -25 41
0 32 -22 51 -60 51 -32 0 -78 -27 -85 -51 -4 -11 -29 -34 -56 -51 -74 -45
-115 -144 -74 -178 9 -8 11 -17 5 -28 -5 -10 -11 -29 -15 -45 -3 -15 -19 -39
-35 -54 -17 -14 -30 -36 -30 -48 0 -12 -9 -30 -19 -39 -18 -17 -26 -43 -38
-136 -3 -25 -14 -56 -24 -69 -24 -30 -24 -57 2 -128 24 -67 76 -121 172 -180
56 -34 69 -38 137 -40 46 -1 97 -10 132 -22 40 -15 82 -21 136 -21 l78 0 39
41 c46 46 148 123 218 164 54 31 61 21 27 -42 -15 -28 -19 -50 -15 -83 2 -25
7 -72 10 -106 l6 -60 -71 8 c-38 5 -100 5 -137 0 -38 -4 -128 -3 -202 2 -209
14 -290 -4 -345 -78 -20 -26 -21 -42 -24 -359 -2 -183 0 -351 3 -375 4 -27 17
-55 34 -75 l28 -31 214 -14 214 -15 72 37 c66 33 80 36 158 36 l85 0 0 -96 c0
-109 8 -130 55 -150 38 -16 131 -19 167 -5 13 4 78 4 148 -1 151 -11 204 -5
236 27 22 22 24 32 24 125 l0 100 85 0 c94 0 121 -10 260 -95 l70 -43 125 9
c69 5 154 10 190 11 l65 3 5 480 c3 264 8 487 10 495 4 13 -44 15 -387 18
l-393 2 -1 23 c-3 35 -3 95 -1 190 l2 89 48 -28 c75 -43 142 -94 209 -158 l63
-59 64 6 c35 3 90 16 122 27 40 15 86 22 139 23 73 2 86 5 138 37 105 63 150
110 176 183 24 69 23 115 -5 138 -8 6 -14 29 -14 51 0 22 -5 49 -11 60 -10 18
-8 25 11 40 12 10 26 18 30 18 4 0 30 -38 59 -85 74 -122 106 -155 145 -155
52 0 79 42 121 186 30 105 36 235 11 281 -21 40 -90 104 -171 157 -38 25 -84
57 -101 71 -18 14 -55 30 -90 37 -32 6 -73 22 -92 34 -39 27 -114 39 -238 37
-175 -1 -233 -36 -300 -176 -22 -47 -56 -99 -84 -127 -61 -62 -75 -113 -61
-220 6 -41 17 -97 25 -125 9 -27 16 -52 16 -53 0 -2 -18 19 -39 46 -47 59 -86
88 -157 117 l-52 21 78 67 c100 84 115 106 112 168 l-2 49 34 0 c56 0 97 37
131 117 26 63 34 72 61 77 33 7 58 30 93 88 12 20 36 46 54 57 58 36 95 85
148 196 39 81 53 122 54 155 0 41 -2 45 -26 48 -18 2 -44 -11 -85 -42 -33 -25
-85 -54 -115 -66 -29 -11 -102 -44 -162 -72 -99 -48 -108 -50 -120 -34 -7 9
-23 22 -36 29 -14 7 -33 37 -50 78 -55 132 -139 231 -253 299 -56 33 -58 36
-58 76 0 45 -47 146 -82 177 -26 22 -72 21 -124 -2z m1194 -1011 c17 -7 32
-16 32 -20 0 -4 -58 -10 -128 -11 -152 -5 -162 -9 -162 -79 0 -47 -1 -49 -64
-99 -68 -53 -132 -91 -154 -91 -22 0 -24 27 -7 86 24 82 71 171 101 191 50 33
114 43 234 39 63 -3 130 -10 148 -16z m-2058 -52 c0 -31 11 -45 43 -57 17 -7
27 -18 27 -31 0 -11 7 -20 15 -20 10 0 15 -10 15 -31 0 -16 4 -28 9 -24 14 8
81 -56 81 -77 0 -11 -5 -15 -14 -12 -8 3 -17 1 -21 -5 -3 -6 -26 -11 -51 -11
-24 0 -44 -4 -44 -10 0 -5 -15 -10 -34 -10 -19 0 -38 -4 -41 -10 -3 -5 -26
-10 -51 -10 -24 0 -44 -4 -44 -10 0 -5 -18 -10 -39 -10 -22 0 -42 -5 -44 -12
-4 -8 -6 -7 -6 3 -1 26 26 42 59 35 17 -3 30 -2 30 3 0 11 -25 21 -51 21 -23
0 -24 6 -4 27 9 9 13 23 10 34 -5 14 0 22 17 28 20 8 21 10 5 16 -10 4 -24 2
-33 -6 -13 -10 -17 -10 -25 2 -13 20 -11 29 6 35 8 4 15 17 15 30 0 17 6 24
20 24 11 0 20 5 20 10 0 6 10 15 23 21 12 5 32 26 45 44 26 41 62 48 62 13z
m2133 6 l38 -7 -23 -24 c-20 -22 -23 -33 -20 -93 l2 -69 -56 32 c-31 18 -76
49 -100 70 -68 59 -59 78 41 88 33 3 65 7 70 7 6 1 27 -1 48 -4z m273 -140
c119 -79 144 -145 110 -289 -10 -46 -13 -50 -41 -50 -26 0 -36 9 -71 61 -50
75 -105 204 -112 262 l-5 42 40 0 c27 0 53 -9 79 -26z m-1891 -95 c28 -30 193
-161 264 -209 36 -24 85 -52 110 -62 l46 -19 -40 6 c-55 9 -108 41 -249 155
-163 131 -181 151 -171 187 l8 28 7 -33 c4 -18 16 -42 25 -53z m245 24 c0 -43
-17 -42 -36 2 -20 49 -18 57 11 43 19 -9 25 -19 25 -45z m380 31 c-21 -54 -32
-68 -41 -53 -16 25 -10 56 14 67 34 16 37 14 27 -14z m-110 -43 c-27 -38 -42
-40 -38 -4 2 19 10 29 28 33 34 9 35 6 10 -29z m-170 -1 c0 -36 -12 -38 -34
-5 -21 32 -20 35 9 35 21 0 25 -5 25 -30z m100 21 c0 -19 -23 -71 -31 -71 -5
0 -9 2 -9 4 0 2 -7 20 -15 40 l-15 36 35 0 c19 0 35 -4 35 -9z m979 -28 c5
-21 13 -66 17 -100 5 -53 4 -63 -9 -63 -8 0 -26 -13 -39 -29 l-24 -28 -22 33
c-14 21 -22 49 -22 75 0 22 -5 49 -10 59 -9 16 -3 25 36 54 26 20 51 36 55 36
5 0 13 -17 18 -37z m-409 -35 c-7 -29 -10 -69 -8 -88 3 -35 3 -35 56 -38 28
-2 52 -5 52 -6 0 -15 -34 -80 -56 -105 -27 -32 -64 -41 -82 -18 -26 31 -41
201 -21 240 14 27 61 78 67 73 2 -3 -2 -28 -8 -58z m568 -68 c-12 -8 -39 -30
-58 -48 -26 -24 -13 -18 48 23 45 30 88 55 95 55 11 0 54 -88 46 -93 -2 -2
-23 -15 -46 -30 l-43 -27 -70 19 c-39 10 -73 21 -76 24 -3 2 7 34 22 71 l26
66 40 -22 40 -23 -24 -15z m-1098 10 c0 -5 -12 -10 -27 -10 -22 0 -25 2 -13
10 20 13 40 13 40 0z m-65 -20 c7 -12 -32 -12 -60 0 -16 7 -13 9 17 9 20 1 40
-3 43 -9z m915 -82 c47 -67 49 -72 34 -89 -17 -18 -16 -63 2 -126 11 -41 -13
-24 -44 30 -16 28 -45 73 -65 99 l-36 47 22 60 c12 33 25 57 30 54 4 -2 30
-36 57 -75z m-1180 -31 c0 -27 -38 -78 -98 -131 -75 -67 -116 -90 -147 -82
-52 13 -33 69 48 143 38 35 92 60 162 76 33 8 35 7 35 -6z m612 -28 c47 -24
107 -84 133 -133 17 -32 18 -38 5 -46 -23 -15 -97 -12 -129 4 -59 31 -141 156
-127 193 8 19 62 11 118 -18z m580 -235 c8 -72 22 -95 69 -114 28 -12 29 -14
13 -31 -21 -23 -62 -24 -92 -3 -20 14 -22 23 -22 127 0 85 3 108 12 99 6 -6
15 -42 20 -78z m-986 50 c36 -21 42 -29 33 -40 -17 -20 -31 -17 -69 14 -20 17
-30 33 -26 40 10 16 11 16 62 -14z m739 -44 c-3 -5 -11 -10 -16 -10 -6 0 -7 5
-4 10 3 6 11 10 16 10 6 0 7 -4 4 -10z m-1265 -66 c0 -22 -40 -27 -61 -8 -25
22 -24 29 4 41 17 8 26 7 40 -5 9 -8 17 -21 17 -28z m1195 32 c18 -13 17 -15
-12 -46 -26 -28 -33 -31 -52 -21 -25 14 -27 38 -4 63 19 21 42 23 68 4z
m-1371 -534 c-1 -73 -3 -134 -5 -136 -2 -2 -28 -7 -56 -11 l-53 -7 0 95 c0
100 -8 115 -51 102 -24 -8 -31 -97 -27 -360 3 -177 5 -210 18 -212 37 -7 45
13 48 122 3 89 2 105 -12 105 -16 0 -32 59 -23 84 3 7 27 17 54 20 26 4 63 10
82 13 l34 6 -5 -192 c-3 -105 -8 -194 -11 -197 -13 -13 -231 -84 -257 -84 -19
0 -33 7 -40 19 -11 22 -15 697 -4 726 13 34 63 45 189 42 l120 -2 -1 -133z
m348 128 c21 -6 42 -19 48 -30 12 -22 13 -391 1 -493 -4 -37 -14 -74 -22 -82
-20 -20 -121 -45 -211 -52 l-77 -6 -12 29 c-14 37 -5 574 11 604 6 11 25 24
43 29 44 13 174 13 219 1z m431 -1 c12 -7 25 -17 29 -23 14 -20 9 -199 -6
-227 -12 -23 -12 -29 0 -41 15 -15 24 -236 11 -275 -11 -30 -25 -33 -161 -39
-67 -3 -133 -7 -148 -9 l-28 -4 0 314 0 315 141 0 c86 0 149 -4 162 -11z m249
-171 c-2 -101 1 -223 5 -273 l8 -90 53 -3 52 -3 0 -48 0 -48 -47 7 c-27 4 -83
11 -125 15 l-78 7 0 271 c0 150 -3 289 -6 310 l-7 37 74 0 74 0 -3 -182z m330
-160 c2 -189 3 -344 3 -345 0 -1 -30 5 -66 14 l-66 14 -6 312 c-3 172 -8 320
-12 330 -6 15 0 17 68 17 l75 0 4 -342z m278 120 c30 -119 57 -219 60 -221 3
-3 3 96 1 219 l-3 224 41 0 41 0 -1 -392 c0 -216 -3 -400 -7 -409 -6 -13 -14
-13 -68 8 l-62 24 -52 217 c-51 213 -79 291 -67 187 8 -67 11 -354 4 -361 -3
-3 -21 -1 -40 5 l-34 12 -7 325 c-4 178 -9 338 -13 355 l-6 30 79 -3 79 -3 55
-217z m-1005 -468 c4 -6 -23 -10 -75 -10 -52 0 -79 4 -75 10 3 6 37 10 75 10
38 0 72 -4 75 -10z m145 0 c0 -5 -7 -10 -15 -10 -9 0 -25 -9 -37 -20 -24 -22
-38 -26 -38 -10 0 6 6 10 13 10 8 0 22 9 32 20 19 21 45 27 45 10z m193 -2
c15 -11 4 -13 -63 -13 -67 0 -77 2 -63 13 9 6 38 12 63 12 25 0 54 -6 63 -12z
m-340 -125 c3 -5 -17 -8 -43 -8 -26 0 -46 3 -43 8 2 4 22 7 43 7 21 0 41 -3
43 -7z m-105 -90 c-10 -2 -26 -2 -35 0 -10 3 -2 5 17 5 19 0 27 -2 18 -5z"/>
<path d="M1705 2831 c-3 -6 -1 -11 4 -11 6 0 11 -6 11 -14 0 -8 14 -17 31 -21
34 -8 52 1 23 11 -10 4 -29 16 -40 26 -14 13 -24 16 -29 9z"/>
<path d="M1775 2715 c-16 -8 -43 -16 -58 -20 -30 -6 -28 -25 4 -25 22 0 108
41 109 53 0 10 -21 8 -55 -8z"/>
<path d="M1642 1110 c3 -43 4 -45 33 -43 17 1 77 19 134 40 l104 38 -44 5
c-33 4 -49 1 -63 -12 -24 -21 -62 -23 -73 -4 -4 7 -27 15 -51 18 l-43 4 3 -46z"/>
<path d="M2135 1688 c-3 -13 -4 -117 -3 -233 3 -178 5 -210 18 -213 9 -1 24 4
35 12 18 13 19 28 19 232 l1 219 -32 3 c-27 3 -33 -1 -38 -20z"/>
<path d="M2550 1645 l0 -86 28 3 c27 3 27 3 27 83 0 80 0 80 -27 83 l-28 3 0
-86z"/>
<path d="M2550 1376 c0 -97 2 -106 19 -106 34 0 42 24 39 117 -3 88 -3 88 -30
91 l-28 3 0 -105z"/>
<path d="M3400 1150 c0 -4 9 -10 20 -13 11 -3 20 -2 20 3 0 4 -9 10 -20 13
-11 3 -20 2 -20 -3z"/>
<path d="M3624 1153 l-51 -4 6 -31 c5 -26 15 -36 59 -55 l52 -23 0 60 c0 33
-3 59 -7 58 -5 -1 -31 -3 -59 -5z"/>
<path d="M5084 3998 c-49 -36 -49 -37 -27 -60 11 -13 26 -38 34 -55 8 -18 17
-33 21 -33 5 0 8 38 8 85 0 47 -2 85 -4 85 -2 0 -16 -10 -32 -22z"/>
<path d="M2 3783 l3 -106 172 -74 c143 -62 175 -72 185 -61 17 17 58 97 58
111 0 7 -17 21 -38 33 -20 11 -112 62 -204 112 -92 51 -170 92 -173 92 -3 0
-4 -48 -3 -107z"/>
<path d="M9 3347 c-1 -1 -3 -39 -5 -83 -3 -58 -1 -84 8 -91 15 -12 149 -43
185 -43 32 0 53 22 53 54 0 14 5 26 10 26 6 0 10 10 10 23 0 18 -8 26 -33 34
-17 6 -76 26 -129 46 -54 19 -98 34 -99 34z"/>
<path d="M10 2791 l0 -78 53 -7 c111 -13 107 -16 107 64 0 68 -1 70 -27 75
-16 4 -47 10 -70 16 -64 14 -63 16 -63 -70z"/>
<path d="M10 2349 l0 -82 53 7 c28 3 64 6 80 6 20 0 27 5 27 20 0 11 -4 20
-10 20 -5 0 -10 22 -10 49 0 46 -1 49 -31 55 -17 3 -49 6 -70 6 l-39 0 0 -81z"/>
<path d="M108 1996 c-48 -6 -90 -15 -95 -19 -4 -5 -9 -42 -11 -83 -5 -85 -3
-86 91 -60 29 8 71 20 95 26 37 10 42 14 42 40 0 16 -4 32 -10 35 -5 3 -10 22
-10 41 0 19 -3 33 -7 33 -5 -1 -47 -6 -95 -13z"/>
<path d="M145 1552 l-140 -47 -3 -92 c-2 -57 1 -93 7 -93 10 0 197 79 298 126
28 13 57 24 64 24 7 0 2 8 -9 19 -12 10 -22 26 -22 35 0 9 -4 16 -10 16 -5 0
-10 14 -10 30 0 39 -4 39 -175 -18z"/>
<path d="M250 1094 c-113 -58 -215 -112 -228 -120 -21 -14 -22 -21 -22 -129 0
-63 2 -115 5 -115 2 0 53 31 112 69 404 261 433 281 433 301 0 11 -4 20 -10
20 -5 0 -10 7 -10 15 0 19 -44 65 -62 65 -7 0 -105 -48 -218 -106z"/>
<path d="M4993 975 c-7 -8 -13 -20 -13 -27 0 -8 -9 -20 -20 -28 -35 -25 -25
-54 38 -101 31 -23 72 -54 90 -67 l33 -25 -3 109 -3 108 -40 23 c-46 26 -65
28 -82 8z"/>
<path d="M514 688 c-109 -83 -269 -206 -354 -272 l-155 -121 -3 -148 c-2 -114
0 -147 10 -147 7 0 78 59 158 131 392 355 650 593 650 601 0 4 -4 8 -10 8 -5
0 -10 7 -10 15 0 16 -63 85 -78 85 -5 0 -98 -68 -208 -152z"/>
<path d="M4720 626 c0 -9 -7 -16 -15 -16 -8 0 -33 -18 -56 -40 l-41 -40 48
-51 c27 -29 89 -95 139 -148 49 -53 143 -150 207 -216 l118 -120 0 152 0 153
-180 156 c-212 185 -220 191 -220 170z"/>
<path d="M1005 487 c-17 -19 -86 -96 -155 -169 -69 -74 -163 -175 -209 -226
l-83 -92 143 0 144 1 50 67 c28 36 94 125 148 197 122 161 147 196 122 173
-17 -16 -20 -14 -56 23 -20 21 -44 39 -52 39 -9 0 -17 5 -19 11 -2 7 -17 -4
-33 -24z"/>
<path d="M4330 310 c-8 -11 -21 -20 -29 -20 -7 0 -22 -10 -33 -22 -17 -19 -22
-21 -40 -9 -20 12 -20 11 3 -26 35 -56 125 -195 141 -216 11 -16 27 -18 135
-15 l121 3 -129 163 c-72 89 -135 162 -142 162 -7 0 -19 -9 -27 -20z"/>
<path d="M1348 143 c-41 -65 -78 -124 -82 -130 -6 -10 17 -13 102 -13 l108 0
33 69 c38 81 35 106 -11 117 -34 7 -58 25 -58 43 0 6 -5 11 -11 11 -5 0 -7 5
-4 10 3 6 4 10 2 10 -3 0 -38 -53 -79 -117z"/>
<path d="M3920 70 c0 -5 -9 -10 -20 -10 -11 0 -36 -9 -56 -20 -27 -16 -39 -18
-49 -10 -11 9 -12 7 -8 -9 5 -19 13 -21 104 -21 l99 0 -20 40 c-18 36 -50 55
-50 30z"/>
<path d="M1851 54 c0 -11 3 -14 6 -6 3 7 2 16 -1 19 -3 4 -6 -2 -5 -13z"/>
<path d="M1836 15 c-3 -9 0 -15 9 -15 16 0 20 16 6 24 -5 3 -11 -1 -15 -9z"/>
</g>
</svg>
